<mxfile host="app.diagrams.net" agent="Mozilla/5.0 (Windows NT 10.0; Win64; x64) AppleWebKit/537.36 (KHTML, like Gecko) Chrome/128.0.0.0 Safari/537.36" version="24.7.12">
  <diagram name="Page-1" id="CqaCEXIv6ftQDkXl2ij-">
    <mxGraphModel dx="2074" dy="1098" grid="1" gridSize="10" guides="1" tooltips="1" connect="1" arrows="1" fold="1" page="1" pageScale="1" pageWidth="850" pageHeight="1100" math="0" shadow="0">
      <root>
        <mxCell id="0" />
        <mxCell id="1" parent="0" />
        <mxCell id="4DBEDBTeXhgbTiUMkxlq-3" value="Source code" style="shape=image;html=1;verticalAlign=top;verticalLabelPosition=bottom;labelBackgroundColor=#ffffff;imageAspect=0;aspect=fixed;image=https://cdn4.iconfinder.com/data/icons/ionicons/512/icon-social-github-128.png" vertex="1" parent="1">
          <mxGeometry x="165" y="840" width="110" height="110" as="geometry" />
        </mxCell>
        <mxCell id="4DBEDBTeXhgbTiUMkxlq-4" value="AWS Cloud" style="sketch=0;outlineConnect=0;gradientColor=none;html=1;whiteSpace=wrap;fontSize=12;fontStyle=0;shape=mxgraph.aws4.group;grIcon=mxgraph.aws4.group_aws_cloud;strokeColor=#AAB7B8;fillColor=none;verticalAlign=top;align=left;spacingLeft=30;fontColor=#AAB7B8;dashed=0;" vertex="1" parent="1">
          <mxGeometry x="140" y="180" width="530" height="450" as="geometry" />
        </mxCell>
        <mxCell id="4DBEDBTeXhgbTiUMkxlq-5" value="AWS CodeBuild" style="sketch=0;outlineConnect=0;fontColor=#232F3E;gradientColor=none;strokeColor=#ffffff;fillColor=#232F3E;dashed=0;verticalLabelPosition=middle;verticalAlign=bottom;align=center;html=1;whiteSpace=wrap;fontSize=10;fontStyle=1;spacing=3;shape=mxgraph.aws4.productIcon;prIcon=mxgraph.aws4.codebuild;" vertex="1" parent="1">
          <mxGeometry x="170" y="450" width="100" height="130" as="geometry" />
        </mxCell>
        <mxCell id="4DBEDBTeXhgbTiUMkxlq-6" value="Developer" style="html=1;verticalLabelPosition=bottom;align=center;labelBackgroundColor=#ffffff;verticalAlign=top;strokeWidth=2;strokeColor=#0080F0;shadow=0;dashed=0;shape=mxgraph.ios7.icons.user;" vertex="1" parent="1">
          <mxGeometry x="570" y="845" width="100" height="100" as="geometry" />
        </mxCell>
        <mxCell id="4DBEDBTeXhgbTiUMkxlq-12" value="Push" style="endArrow=classic;html=1;rounded=0;entryX=0.955;entryY=0.582;entryDx=0;entryDy=0;entryPerimeter=0;" edge="1" parent="1" target="4DBEDBTeXhgbTiUMkxlq-3">
          <mxGeometry width="50" height="50" relative="1" as="geometry">
            <mxPoint x="571" y="904" as="sourcePoint" />
            <mxPoint x="280" y="910" as="targetPoint" />
          </mxGeometry>
        </mxCell>
        <mxCell id="4DBEDBTeXhgbTiUMkxlq-13" value="Trigger" style="endArrow=classic;html=1;rounded=0;" edge="1" parent="1">
          <mxGeometry width="50" height="50" relative="1" as="geometry">
            <mxPoint x="220" y="836" as="sourcePoint" />
            <mxPoint x="220" y="590" as="targetPoint" />
          </mxGeometry>
        </mxCell>
        <mxCell id="4DBEDBTeXhgbTiUMkxlq-14" value="ECR" style="outlineConnect=0;dashed=0;verticalLabelPosition=bottom;verticalAlign=top;align=center;html=1;shape=mxgraph.aws3.ecr;fillColor=#F58534;gradientColor=none;" vertex="1" parent="1">
          <mxGeometry x="360" y="250" width="100" height="100" as="geometry" />
        </mxCell>
        <mxCell id="4DBEDBTeXhgbTiUMkxlq-16" value="Image" style="endArrow=classic;html=1;rounded=0;exitX=0.151;exitY=0.6;exitDx=0;exitDy=0;exitPerimeter=0;" edge="1" parent="1" source="4DBEDBTeXhgbTiUMkxlq-4">
          <mxGeometry width="50" height="50" relative="1" as="geometry">
            <mxPoint x="310" y="350" as="sourcePoint" />
            <mxPoint x="360" y="300" as="targetPoint" />
          </mxGeometry>
        </mxCell>
        <mxCell id="4DBEDBTeXhgbTiUMkxlq-17" value="Amazon EKS" style="sketch=0;outlineConnect=0;fontColor=#232F3E;gradientColor=none;strokeColor=#ffffff;fillColor=#232F3E;dashed=0;verticalLabelPosition=middle;verticalAlign=bottom;align=center;html=1;whiteSpace=wrap;fontSize=10;fontStyle=1;spacing=3;shape=mxgraph.aws4.productIcon;prIcon=mxgraph.aws4.eks;" vertex="1" parent="1">
          <mxGeometry x="540" y="450" width="100" height="120" as="geometry" />
        </mxCell>
        <mxCell id="4DBEDBTeXhgbTiUMkxlq-19" value="Deploy" style="endArrow=classic;html=1;rounded=0;entryX=0.849;entryY=0.6;entryDx=0;entryDy=0;entryPerimeter=0;" edge="1" parent="1" target="4DBEDBTeXhgbTiUMkxlq-4">
          <mxGeometry width="50" height="50" relative="1" as="geometry">
            <mxPoint x="460" y="300" as="sourcePoint" />
            <mxPoint x="510" y="250" as="targetPoint" />
          </mxGeometry>
        </mxCell>
      </root>
    </mxGraphModel>
  </diagram>
</mxfile>
